<?xml version="1.0" encoding="utf-8"?>

<!DOCTYPE svg PUBLIC "-//W3C//DTD SVG 1.1//EN" "http://www.w3.org/Graphics/SVG/1.1/DTD/svg11.dtd">
<!-- Uploaded to: SVG Repo, www.svgrepo.com, Generator: SVG Repo Mixer Tools -->
<svg height="800px" width="800px" version="1.1" id="_x32_" xmlns="http://www.w3.org/2000/svg" xmlns:xlink="http://www.w3.org/1999/xlink" 
	 viewBox="0 0 512 512"  xml:space="preserve">
<style type="text/css">
	.st0{fill:#000000;}
</style>
<g>
	<path class="st0" d="M499.378,453.571c-7.532,2.046-15.868,3.087-25.175,3.087c-0.004,0-0.004,0-0.004,0
		c-17.27,0-36.183-3.292-56.21-6.787c-18.726-3.273-38.093-6.648-53.351-6.648c-32.143,0-59.171,8.313-85.308,16.346
		c-14.835,4.565-28.842,8.879-43.519,11.696c-14.82,2.864-39.674,4.306-73.867,4.306c-53.081,0-126.99-3.794-158.784-10.116
		c-0.562-0.103-1.669-0.353-3.161-0.782v22.325c0,13.426,10.882,24.314,24.309,24.314h232.237l94.09-35.788
		c1.869-0.706,3.966-0.446,5.611,0.688c1.641,1.124,2.627,3.003,2.627,5.002v24.025c0,3.348,2.725,6.072,6.076,6.072h118.06
		c13.426,0,24.309-10.888,24.309-24.314c0,0,0-18.326,0-24.584C507.318,456.146,502.134,452.827,499.378,453.571z"/>
	<path class="st0" d="M18.734,449.164c40.99,8.155,171.508,5.755,208.983-1.441c37.476-7.206,79.269-28.824,136.92-28.824
		c57.647,0,130.686,29.503,139.882,3.106c16.276-46.694,2.798-111.202-10.172-147.232c-12.97-36.038-6.647-222.981-4.323-239.252
		c2.888-20.176-2.877-34.588-33.142-34.588c-30.269,0-155.66,1.432-168.635,0c-12.97-1.432-28.108,2.892-28.108,28.108
		c0,25.225,0,193.841,0,198.174c0,4.324-111.694,95.108-143.4,102.323c-31.706,7.205-87.577,7.54-109.533,49
		c-12.97,24.5-2.882,44.676-2.882,51.892C4.324,437.644,11.524,447.732,18.734,449.164z M279.391,121.229h27.312
		c8.229,0,14.896,6.685,14.896,14.914c0,8.228-6.667,14.886-14.896,14.886h-27.312V121.229z M279.391,191.976h27.312
		c8.229,0,14.896,6.676,14.896,14.905c0,8.228-6.667,14.886-14.896,14.886h-27.312V191.976z M246.048,259.404l16.308,21.896
		c4.918,6.601,3.548,15.936-3.054,20.845c-6.606,4.918-15.922,3.552-20.84-3.059l-16.308-21.896L246.048,259.404z M186.124,308.924
		l16.309,21.897c4.918,6.601,3.546,15.936-3.054,20.845c-6.607,4.919-15.923,3.552-20.842-3.059l-16.308-21.896L186.124,308.924z"/>
</g>
</svg>