<?xml version="1.0" encoding="iso-8859-1"?>
<!-- Uploaded to: SVG Repo, www.svgrepo.com, Generator: SVG Repo Mixer Tools -->
<svg fill="#000000" height="800px" width="800px" version="1.1" id="Layer_1" xmlns="http://www.w3.org/2000/svg" xmlns:xlink="http://www.w3.org/1999/xlink" 
	 viewBox="0 0 512 512" xml:space="preserve">
<g>
	<g>
		<path d="M510.83,271.521c-6.621-15.051-45.638-32.871-115.964-52.964c-3.842-1.098-7.907,0.801-9.53,4.454
			c-0.312,0.702-38.926,67.478-315.011-29.963c-33.717-11.9-45.393-9.537-48.169-8.529c-2.022,0.734-3.664,2.249-4.558,4.207
			c-1.052,2.305-25.648,56.919-14.875,98.298c1.863,7.16,7.324,12.629,14.151,14.733v10.039c0,9.138,7.433,16.571,16.571,16.571
			h94.081c9.138,0,16.571-7.433,16.571-16.571v-8.983c32.23,0.75,63.576,5.852,96.613,11.242
			c41.132,6.709,87.751,14.313,143.401,14.313c97.5,0,125.472-44.752,126.615-46.657c0.106-0.176,0.204-0.356,0.296-0.54
			C511.67,279.873,512.948,276.337,510.83,271.521z M128.06,311.795c0,0.294-0.239,0.535-0.535,0.535H33.445
			c-0.295,0-0.535-0.24-0.535-0.535v-9.087h95.15V311.795z M474.041,292.722c-28.366,16.205-64.563,19.606-89.932,19.606
			c-54.351,0-98.309-7.17-140.819-14.104c-36.43-5.942-70.839-11.555-107.213-11.555H23.095c-2.255,0-4.296-1.55-4.852-3.687
			c-7.749-29.766,6.838-70.174,12.132-83.296c4.805,0.213,15.283,1.659,34.613,8.481c121.831,42.999,214.473,60.39,275.354,51.694
			c33.959-4.852,49.213-16.87,55.594-24.308c75.595,21.997,94.395,35.997,98.881,40.691
			C491.759,279.831,485.284,286.299,474.041,292.722z"/>
	</g>
</g>
</svg>