<?xml version="1.0" encoding="iso-8859-1"?>
<!-- Uploaded to: SVG Repo, www.svgrepo.com, Generator: SVG Repo Mixer Tools -->
<!DOCTYPE svg PUBLIC "-//W3C//DTD SVG 1.1//EN" "http://www.w3.org/Graphics/SVG/1.1/DTD/svg11.dtd">
<svg fill="#000000" height="800px" width="800px" version="1.1" id="Capa_1" xmlns="http://www.w3.org/2000/svg" xmlns:xlink="http://www.w3.org/1999/xlink" 
	 viewBox="0 0 480.004 480.004" xml:space="preserve">
<path d="M472.663,158.657l7.341-2.024V97.947l-12.348,2.982c-0.365,0.089-36.885,8.826-66.637,8.826
	c-29.689,0-66.271-8.738-66.637-8.826l-12.346-2.978v58.681l7.341,2.024c21.284,5.872,29.192,12.718,33.847,29.301
	c5.349,19.06,5.908,50.241,5.955,102.387c-14.458-0.001-27.44-0.001-36.383-0.001c-18.258,0-35.459,8.819-53.67,18.157
	c-15.646,8.022-32.828,16.825-52.729,20.933c-1.607-18.043-5.802-52.238-15.807-77.438c-13.312-33.556-37.049-63.143-39.72-66.416
	l-6.344-7.774l-35.081,28.828l-7.839,6.343l6.467,7.737c0.205,0.25,20.576,25.297,31.06,51.699
	c5.346,13.478,9.454,33.456,12.23,59.38h-33.888c-1.235-13.865-4.464-40.002-12.238-59.584
	c-10.84-27.325-30.595-51.245-30.793-51.483l-6.356-7.644l-35.009,28.762l-7.685,6.335l6.291,7.722
	c0.146,0.18,14.726,18.183,22.092,36.725c4.384,11.058,6.941,27.692,8.19,39.168H0v50.264h203.734
	c34.795,0,61.211-13.545,84.518-25.495c12.33-6.322,23.419-12.008,33.784-14.549v40.044h157.967v-91.704l-9.999-0.001
	c0,0-15.809-0.001-37.146-0.003c0.047-52.147,0.607-83.331,5.956-102.391C443.468,171.375,451.378,164.529,472.663,158.657z
	 M149.585,215.969l11.914-9.791c7.997,10.842,21.754,31.143,30.501,53.195c8.338,21.002,12.745,51.774,14.541,72.383
	c-0.93,0.023-1.866,0.036-2.807,0.036h-12.26c-2.966-28.757-7.59-51.219-13.753-66.757
	C169.856,245.225,157.113,226.281,149.585,215.969z M92.366,285.247c-5.326-13.404-13.588-26.158-19.193-34.028l11.912-9.786
	c6.087,8.455,15.445,22.735,21.562,38.153c6.514,16.408,9.484,39.107,10.732,52.207h-15.313
	C100.895,320.068,98.166,299.875,92.366,285.247z M460.004,362.056H342.037v-21.449c32.886,0.001,94.012,0.005,117.967,0.007
	V362.056z M460.004,320.614c-26.441-0.002-98.15-0.007-127.207-0.007c-18.258,0-35.459,8.819-53.67,18.157
	c-21.292,10.918-45.426,23.292-75.392,23.292H20v-10.264h183.734c34.795,0,61.211-13.545,84.518-25.495
	c16.695-8.561,31.115-15.954,44.544-15.954c29.06,0,100.771,0.005,127.207,0.007V320.614z M412.857,290.347
	c-7.744,0-15.754-0.001-23.676-0.002c-0.044-101.652-1.467-133.333-47.145-148.731V123.03c14.037,2.778,37.723,6.726,58.982,6.726
	c21.262,0,44.947-3.947,58.984-6.726v18.584C414.324,157.014,412.901,188.694,412.857,290.347z"/>
</svg>