<svg xmlns="http://www.w3.org/2000/svg" xmlns:xlink="http://www.w3.org/1999/xlink" width="1080" zoomAndPan="magnify" viewBox="0 0 810 809.999993" height="1080" preserveAspectRatio="xMidYMid meet" version="1.0"><path fill="#000000" d="M 4.28125 449.066406 L 17.539062 418.148438 C 17.714844 417.71875 18.050781 417.394531 18.28125 416.988281 C 19.441406 414.140625 20.847656 411.210938 22.914062 408.210938 C 41.910156 380.628906 93.523438 366.777344 176.195312 366.976562 L 198.972656 465.644531 C 208.070312 466.226562 217.414062 466.738281 227.039062 467.199219 L 203.347656 364.519531 L 259.324219 338.179688 L 299.433594 405.023438 C 301.960938 409.25 306.429688 411.574219 311.019531 411.574219 C 313.382812 411.574219 315.785156 410.964844 317.960938 409.65625 C 324.34375 405.820312 326.425781 397.515625 322.589844 391.132812 L 283.882812 326.621094 L 314.070312 312.417969 L 353.441406 378.019531 C 355.964844 382.246094 360.433594 384.570312 365.027344 384.570312 C 367.390625 384.570312 369.792969 383.960938 371.964844 382.652344 C 378.351562 378.816406 380.429688 370.515625 376.597656 364.128906 L 338.632812 300.859375 L 368.820312 286.644531 L 407.449219 351.019531 C 409.972656 355.242188 414.441406 357.566406 419.03125 357.566406 C 421.394531 357.566406 423.800781 356.957031 425.972656 355.648438 C 432.359375 351.816406 434.4375 343.511719 430.601562 337.125 L 393.378906 275.085938 L 423.570312 260.882812 L 461.453125 324.015625 C 463.980469 328.242188 468.449219 330.5625 473.039062 330.5625 C 475.402344 330.5625 477.804688 329.957031 479.976562 328.644531 C 486.363281 324.8125 488.445312 316.507812 484.609375 310.121094 L 448.128906 249.324219 L 475.375 236.5 L 547.429688 466.34375 C 556.773438 465.996094 566.105469 465.644531 575.394531 465.265625 L 506.117188 244.304688 C 526.761719 271.980469 612.15625 367.609375 755.636719 284.039062 C 756.675781 283.429688 757.875 283.347656 759.011719 283.039062 C 759.46875 282.902344 759.832031 282.621094 760.320312 282.539062 C 771.769531 280.59375 783.003906 264.273438 783.003906 249.554688 C 783.003906 242.101562 789.039062 236.054688 796.503906 236.054688 C 803.953125 236.054688 810.003906 242.101562 810.003906 249.554688 C 810.003906 270.335938 797.433594 294.21875 777.816406 304.492188 C 789.128906 364.601562 806.101562 452.183594 809.300781 461.785156 C 809.488281 462.351562 809.355469 462.945312 809.476562 463.539062 C 809.636719 464.378906 810 465.175781 810 466.054688 L 810 546.589844 C 810 553.933594 804.128906 559.929688 796.796875 560.089844 C 793.527344 560.15625 468.78125 567.285156 260.320312 573.589844 C 252.433594 573.832031 244.792969 573.941406 237.355469 573.941406 C 121.660156 573.941406 57.933594 546.195312 24.410156 522.066406 C 2.511719 506.316406 -5.871094 476.558594 4.28125 449.066406 Z M 634.480469 398.074219 C 627.015625 398.074219 620.980469 404.121094 620.980469 411.574219 C 620.980469 419.042969 627.015625 425.074219 634.480469 425.074219 C 641.933594 425.074219 647.984375 419.039062 647.984375 411.574219 C 647.984375 404.125 641.933594 398.074219 634.480469 398.074219 Z M 688.488281 398.074219 C 681.019531 398.074219 674.988281 404.121094 674.988281 411.574219 C 674.988281 419.042969 681.023438 425.074219 688.488281 425.074219 C 695.941406 425.074219 701.988281 419.039062 701.988281 411.574219 C 701.988281 404.125 695.941406 398.074219 688.488281 398.074219 Z M 40.179688 500.15625 C 72.476562 523.394531 136.78125 550.25 259.496094 546.601562 C 444.101562 541.027344 719.796875 534.789062 782.996094 533.382812 L 782.996094 480.59375 C 722.511719 484.980469 542.347656 496.917969 371.515625 497.296875 L 370.839844 497.296875 C 368.34375 497.296875 365.84375 497.308594 363.359375 497.308594 C 358.324219 497.308594 353.328125 497.269531 348.304688 497.242188 C 345.121094 497.226562 341.90625 497.226562 338.722656 497.199219 C 332.132812 497.160156 325.597656 497.078125 319.0625 496.984375 C 315.632812 496.945312 312.203125 496.90625 308.800781 496.851562 C 302.605469 496.742188 296.476562 496.609375 290.34375 496.460938 C 286.699219 496.378906 283.054688 496.296875 279.449219 496.203125 C 273.578125 496.042969 267.8125 495.839844 262.03125 495.636719 C 258.292969 495.5 254.539062 495.378906 250.839844 495.230469 C 245.265625 495.015625 239.808594 494.746094 234.339844 494.488281 C 230.601562 494.300781 226.847656 494.136719 223.160156 493.933594 C 217.898438 493.636719 212.753906 493.3125 207.609375 492.988281 C 203.855469 492.746094 200.089844 492.515625 196.417969 492.257812 C 191.515625 491.910156 186.75 491.515625 181.984375 491.125 C 178.253906 490.816406 174.515625 490.515625 170.886719 490.195312 C 166.347656 489.777344 161.960938 489.332031 157.558594 488.871094 C 153.902344 488.492188 150.226562 488.128906 146.679688 487.707031 C 142.503906 487.234375 138.496094 486.722656 134.472656 486.195312 C 130.949219 485.738281 127.410156 485.292969 123.996094 484.804688 C 120.1875 484.265625 116.554688 483.671875 112.898438 483.078125 C 109.550781 482.550781 106.203125 482.011719 102.988281 481.429688 C 99.546875 480.824219 96.265625 480.160156 92.984375 479.5 C 89.878906 478.863281 86.773438 478.257812 83.816406 477.582031 C 80.738281 476.894531 77.847656 476.164062 74.945312 475.421875 C 72.109375 474.707031 69.261719 473.992188 66.601562 473.222656 C 63.914062 472.464844 61.417969 471.644531 58.917969 470.832031 C 56.394531 470.019531 53.882812 469.210938 51.546875 468.347656 C 49.253906 467.496094 47.160156 466.605469 45.054688 465.703125 C 42.894531 464.785156 40.734375 463.867188 38.789062 462.90625 C 36.898438 461.976562 35.222656 460.992188 33.535156 460.019531 C 32.347656 459.316406 30.917969 458.683594 29.824219 457.964844 L 29.351562 459.058594 C 23.558594 474.800781 27.90625 491.3125 40.179688 500.15625 Z M 40.179688 500.15625 " fill-opacity="1" fill-rule="nonzero"/></svg>