<?xml version="1.0" encoding="iso-8859-1"?>
<!-- Uploaded to: SVG Repo, www.svgrepo.com, Generator: SVG Repo Mixer Tools -->
<svg fill="#000000" height="800px" width="800px" version="1.1" id="Layer_1" xmlns="http://www.w3.org/2000/svg" xmlns:xlink="http://www.w3.org/1999/xlink" 
	 viewBox="0 0 512 512" xml:space="preserve">
<g>
	<g>
		<polygon points="111.491,0 111.491,52.715 400.492,52.715 400.509,0 		"/>
	</g>
</g>
<g>
	<g>
		<path d="M258.148,512h149.803l-19.555-208.759l8.104-156.174h-12.688c-37.088,0-68.168-26.141-75.829-60.961h-35.144v37.344
			h-33.391V86.106h-35.733c-7.651,34.5-38.471,60.386-75.241,60.386h-13.005l8.134,156.749L104.048,512h149.803l-13.519-208.951
			v-96.42h31.334v96.42L258.148,512z"/>
	</g>
</g>
<g>
	<g>
		<path d="M342.826,86.105c6.606,16.155,22.485,27.57,40.987,27.57h14.421l1.43-27.57H342.826z"/>
	</g>
</g>
<g>
	<g>
		<path d="M112.336,86.106l1.401,26.995h14.737c18.18,0,33.798-11.165,40.369-26.995H112.336z"/>
	</g>
</g>
</svg>