<?xml version="1.0" encoding="utf-8"?>

<!DOCTYPE svg PUBLIC "-//W3C//DTD SVG 1.0//EN" "http://www.w3.org/TR/2001/REC-SVG-20010904/DTD/svg10.dtd">
<!-- Uploaded to: SVG Repo, www.svgrepo.com, Generator: SVG Repo Mixer Tools -->
<svg version="1.0" id="Layer_1" xmlns="http://www.w3.org/2000/svg" xmlns:xlink="http://www.w3.org/1999/xlink" 
	 width="800px" height="800px" viewBox="0 0 64 64" enable-background="new 0 0 64 64" xml:space="preserve">
<g>
	<rect x="28" y="7" fill="#231F20" width="8" height="6"/>
	<path fill="#231F20" d="M12,18.002V13H0v15.002h2C7.522,28.002,12,23.522,12,18.002z"/>
	<rect y="9" fill="#231F20" width="26" height="2"/>
	<path fill="#231F20" d="M50,18.002V13H38v1c0,0.552-0.447,1-1,1H27c-0.553,0-1-0.448-1-1v-1H14v5.002c0,6.627-5.373,12-12,12H0V60
		c0,2.211,1.789,4,4,4c0,0,14,0,18,0s4.96-4.004,4.96-4.004L31,40c0,0,0.172-1,1-1s1,1,1,1l4.044,20.019C37.044,60.019,38,64,42,64
		s18,0,18,0c2.211,0,4-1.789,4-4V30.002h-2C55.373,30.002,50,24.629,50,18.002z"/>
	<path fill="#231F20" d="M60,0H4C1.789,0,0,1.788,0,4v3h26V6c0-0.554,0.447-1,1-1h10c0.553,0,1,0.446,1,1v1h26V4
		C64,1.788,62.211,0,60,0z"/>
	<rect x="38" y="9" fill="#231F20" width="26" height="2"/>
	<path fill="#231F20" d="M52,18.002c0,5.521,4.478,10,10,10h2V13H52V18.002z"/>
</g>
</svg>