<?xml version="1.0" encoding="iso-8859-1"?>
<!-- Uploaded to: SVG Repo, www.svgrepo.com, Generator: SVG Repo Mixer Tools -->
<!DOCTYPE svg PUBLIC "-//W3C//DTD SVG 1.1//EN" "http://www.w3.org/Graphics/SVG/1.1/DTD/svg11.dtd">
<svg fill="#000000" height="800px" width="800px" version="1.1" id="Capa_1" xmlns="http://www.w3.org/2000/svg" xmlns:xlink="http://www.w3.org/1999/xlink" 
	 viewBox="0 0 295.721 295.721" xml:space="preserve">
<g>
	<path d="M295.353,67.922c-0.608-1.707-1.874-3.11-3.522-3.876L235.45,38.019c-8.146-2.76-16.398-5.116-24.718-7.085
		c-0.337,1.497-0.868,2.972-1.608,4.391l-20.089,38.551c-5.213,10.002-18.206,12.684-26.959,5.745l-6.714-5.324v57.876
		c0,4.143-3.357,7.5-7.5,7.5c-4.143,0-7.5-3.357-7.5-7.5V74.298l-6.715,5.325c-8.764,6.948-21.752,4.243-26.958-5.747l-20.089-38.55
		c-0.74-1.419-1.271-2.895-1.608-4.391c-8.322,1.969-16.579,4.325-24.738,7.085L3.891,64.045c-1.658,0.766-2.934,2.169-3.513,3.876
		c-0.599,1.727-0.49,3.593,0.354,5.222l24.475,48.303c1.443,2.885,4.759,4.318,7.861,3.386l27.185-8.057v162.076
		c0,3.68,3.003,6.683,6.693,6.683h161.831c3.681,0,6.674-3.003,6.674-6.683V116.776l27.204,8.057c3.101,0.933,6.4-0.501,7.862-3.386
		L295,73.143C295.825,71.514,295.942,69.649,295.353,67.922z"/>
	<path d="M119.99,66.944c0.397,0.761,1.112,1.305,1.951,1.484c0.199,0.042,0.4,0.063,0.599,0.063c0.643,0,1.274-0.216,1.787-0.623
		l23.534-18.662l23.534,18.662c0.513,0.407,1.144,0.623,1.787,0.623c0.2,0,0.401-0.021,0.6-0.063
		c0.839-0.179,1.555-0.723,1.951-1.484l20.089-38.55c0.62-1.19,0.335-2.65-0.687-3.52l-16.456-14.001
		c-0.522-0.444-1.183-0.686-1.863-0.686c-0.077,0-0.154,0.003-0.232,0.009c-0.76,0.061-1.465,0.422-1.96,1.003l-26.763,31.462
		L121.098,11.2c-0.494-0.581-1.199-0.942-1.959-1.003c-0.077-0.006-0.155-0.009-0.232-0.009c-0.68,0-1.341,0.241-1.863,0.686
		l-16.456,14.001c-1.022,0.869-1.307,2.33-0.687,3.52L119.99,66.944z"/>
</g>
</svg>