<?xml version="1.0" encoding="iso-8859-1"?>
<!-- Uploaded to: SVG Repo, www.svgrepo.com, Generator: SVG Repo Mixer Tools -->
<svg fill="#000000" height="800px" width="800px" version="1.1" id="Layer_1" xmlns="http://www.w3.org/2000/svg" xmlns:xlink="http://www.w3.org/1999/xlink" 
	 viewBox="0 0 512.006 512.006" xml:space="preserve">
<g>
	<g>
		<path d="M411.542,56.685c-2.458-2.85-5.137-4.71-7.996-5.547L328.999,1.44c-2.21-1.485-4.992-1.843-7.501-0.973
			c-2.517,0.862-4.489,2.85-5.325,5.367c-0.068,0.222-0.188,0.427-0.265,0.648c-12.954,6.545-35.447,10.59-59.913,10.59
			c-24.457,0-46.95-4.045-59.904-10.59c-0.077-0.222-0.196-0.427-0.265-0.648c-0.836-2.517-2.807-4.506-5.325-5.367
			c-2.5-0.862-5.291-0.503-7.501,0.973l-74.547,49.698c-2.859,0.836-5.538,2.697-7.996,5.547
			c-29.278,34.057-59.469,265.813-45.815,413.44c0.29,3.174,2.33,5.768,5.086,6.98v17.835c0,9.412,7.663,17.067,17.067,17.067h25.6
			c9.412,0,17.067-7.654,17.067-17.067v-18.842c1.613-1.22,2.816-2.97,3.243-5.069c1.041-5.146,3.132-14.524,5.751-24.559
			l8.516,25.566c1.161,3.482,4.42,5.837,8.09,5.837v17.067c0,9.412,7.663,17.067,17.067,17.067h187.733
			c9.412,0,17.067-7.654,17.067-17.067v-17.067c3.678,0,6.938-2.355,8.098-5.837l8.525-25.583
			c3.396,13.09,5.709,24.363,5.751,24.576c0.427,2.099,1.621,3.849,3.226,5.069v18.842c0,9.412,7.663,17.067,17.067,17.067h25.6
			c9.412,0,17.067-7.654,17.067-17.067v-17.826c2.765-1.22,4.804-3.814,5.103-6.989C471.011,322.498,440.82,90.733,411.542,56.685z
			 M125.667,124.2c-0.102,1.101-0.205,2.202-0.307,3.302c-0.486,5.052-0.939,10.078-1.357,15.07
			c-0.102,1.161-0.196,2.321-0.29,3.482c-1.109,13.602-2.039,26.999-2.756,40.09c-0.026,0.375-0.06,0.751-0.077,1.126
			c-0.009,0.034,0.009,0.06,0.009,0.094c-0.947,17.51-1.553,34.475-1.911,50.842c-0.026,1.391-0.051,2.748-0.077,4.139
			c-0.06,3.115-0.119,6.221-0.162,9.293c-1.05,66.364,1.783,122.743,4.821,155.392c-7.014,14.933-13.346,41.31-16.12,53.777H70.968
			C58.049,302.795,92.174,100.589,111.305,70.389c0.299,0.23,0.649,0.427,0.939,0.666c0.785,0.64,1.485,1.323,2.202,2.005
			c0.956,0.913,1.894,1.835,2.714,2.79c0.623,0.734,1.203,1.468,1.758,2.21c0.717,0.964,1.408,1.937,2.022,2.918
			c0.469,0.751,0.913,1.502,1.323,2.261c0.538,0.973,1.016,1.946,1.451,2.901c0.333,0.734,0.674,1.459,0.956,2.176
			c0.375,0.947,0.691,1.86,0.99,2.756c0.213,0.657,0.452,1.331,0.623,1.954c0.247,0.879,0.444,1.69,0.623,2.483
			c0.119,0.521,0.273,1.092,0.367,1.57c0.154,0.802,0.256,1.476,0.35,2.125c0.051,0.316,0.128,0.717,0.162,0.998
			c0.102,0.828,0.162,1.519,0.196,1.929C127.135,109.549,126.384,116.887,125.667,124.2z M255.996,34.14
			c17.877,0,34.731-1.971,48.589-5.521c-2.108,3.055-4.395,5.956-6.844,8.695c-2.517,2.782-5.18,5.444-8.047,7.91l-33.698,28.877
			l-33.69-28.877c-2.867-2.466-5.53-5.128-8.047-7.91c-2.449-2.739-4.736-5.641-6.844-8.695
			C221.274,32.168,238.128,34.14,255.996,34.14z M367.118,441.811l-6.332,18.995h-2.389h-204.8h-2.381l-6.332-18.995
			c-1.092-8.363-10.47-84.011-9.096-189.363c0.06-3.738,0.102-7.433,0.179-11.23c0.008-0.171,0.008-0.333,0.017-0.503
			c0.324-14.43,0.836-29.286,1.579-44.442h118.434h118.443c0.717,14.694,1.22,29.099,1.545,43.119
			c0.017,0.964,0.043,1.954,0.068,2.91c0.043,2.125,0.06,4.173,0.094,6.272C377.801,355.897,368.218,433.337,367.118,441.811z
			 M441.042,460.806H404.57c-2.782-12.467-9.114-38.844-16.128-53.777c3.038-32.648,5.871-89.028,4.821-155.392
			c-0.043-3.098-0.102-6.229-0.162-9.361c-0.026-1.357-0.051-2.679-0.077-4.036c-0.358-16.375-0.964-33.357-1.911-50.876
			c0-0.034,0.017-0.06,0.008-0.094c-0.017-0.384-0.051-0.751-0.077-1.135c-0.717-13.09-1.647-26.479-2.756-40.081
			c-0.094-1.161-0.188-2.313-0.29-3.482c-0.418-4.992-0.87-10.01-1.357-15.061c-0.102-1.109-0.205-2.21-0.307-3.311
			c-0.717-7.313-1.468-14.66-2.313-22.067c0.034-0.401,0.094-1.075,0.196-1.894c0.034-0.29,0.12-0.717,0.171-1.067
			c0.094-0.631,0.188-1.28,0.341-2.048c0.094-0.495,0.247-1.075,0.375-1.621c0.179-0.777,0.367-1.562,0.614-2.423
			c0.179-0.64,0.418-1.323,0.64-1.997c0.29-0.887,0.606-1.783,0.973-2.714c0.29-0.734,0.631-1.476,0.973-2.227
			c0.427-0.947,0.905-1.894,1.425-2.859c0.418-0.768,0.879-1.536,1.357-2.313c0.597-0.964,1.28-1.92,1.988-2.876
			c0.563-0.759,1.143-1.51,1.783-2.244c0.811-0.947,1.741-1.86,2.688-2.765c0.717-0.691,1.425-1.382,2.227-2.039
			c0.282-0.23,0.631-0.427,0.922-0.657C419.828,100.606,453.953,302.803,441.042,460.806z"/>
	</g>
</g>
</svg>